<svg version="1.1" id="Layer_1" xmlns="http://www.w3.org/2000/svg" xmlns:xlink="http://www.w3.org/1999/xlink" x="0px" y="0px"
	 width="100%" viewBox="0 0 678 528" enable-background="new 0 0 678 528" xml:space="preserve">
<path fill="#ECEBED" opacity="1.000000" stroke="none"
	d="
M535.091431,264.010559
	C539.857544,264.328613 544.709351,264.190918 549.370422,265.067505
	C557.100220,266.521271 562.746155,275.556274 561.262695,285.084137
	C558.805664,300.865906 557.025879,316.753296 554.977234,332.598328
	C553.963867,340.436310 552.987366,348.279083 551.845337,356.870880
	C546.594421,362.083008 544.999268,367.719238 546.263489,374.234711
	C546.701721,376.493134 547.424377,378.696381 548.017090,380.924805
	C545.782532,396.793396 543.549133,412.662201 541.312866,428.530548
	C539.883240,438.675232 538.817322,448.889038 536.912476,458.943817
	C535.045715,468.797577 529.307373,473.001099 519.318481,473.001526
	C406.044006,473.006531 292.769287,472.892242 179.495361,473.149109
	C165.499664,473.180847 159.405411,465.616577 157.919464,453.225372
	C155.677551,434.530060 152.786301,415.913361 150.252136,397.252228
	C148.428574,383.823761 146.793320,370.369751 144.972153,356.940979
	C142.907043,341.713287 140.733139,326.500366 138.597473,311.282288
	C136.737701,298.030121 134.873489,284.778595 132.996414,271.528900
	C130.771866,255.826401 128.772705,240.086746 126.215324,224.438446
	C124.430023,213.514450 132.520691,203.099014 143.578568,203.012878
	C149.075531,202.970047 154.573044,202.995529 161.006683,203.022598
	C169.296051,203.021530 176.649048,202.987961 184.408920,203.024200
	C186.183517,203.042252 187.551208,202.990494 189.391693,202.971283
	C212.253799,203.037857 234.643127,203.071899 257.065308,203.440460
	C257.856628,204.578842 258.639435,205.361313 259.369232,206.190445
	C261.931885,209.101898 264.476288,212.029434 266.765015,215.199615
	C267.680267,224.933640 268.864716,234.418137 270.034424,243.904434
	C271.572021,256.374115 277.886566,265.646484 292.419739,264.094452
	C297.525970,263.549103 302.742065,264.104736 307.902435,263.959503
	C309.967743,263.901367 312.018005,263.308899 314.485138,263.024780
	C316.843872,263.393616 318.792389,263.960693 320.741394,263.962494
	C366.846710,264.005493 412.952087,263.987640 459.522491,263.983887
	C477.404205,263.922302 494.820892,263.857697 512.680176,263.865723
	C520.445679,263.962433 527.768555,263.986481 535.091431,264.010559
M451.500000,395.985870
	C459.162781,395.985443 466.826324,395.920197 474.488037,396.011322
	C478.459747,396.058563 481.167816,393.817261 481.772095,390.479553
	C483.242462,382.357880 484.212463,374.122284 484.913422,365.892487
	C485.421234,359.930115 483.343445,358.003845 477.473694,358.002838
	C391.182617,357.988281 304.891510,357.988983 218.600433,358.001801
	C212.891174,358.002655 210.268875,361.321808 211.158295,366.981842
	C212.183884,373.508331 213.228653,380.040649 213.937103,386.605865
	C214.779419,394.411713 216.303818,395.985077 224.110825,395.985199
	C299.573883,395.986267 375.036957,395.985809 451.500000,395.985870
z"/>
<path fill="#B7E7F9" opacity="1.000000" stroke="none"
	d="
M512.237549,263.793060
	C494.820892,263.857697 477.404205,263.922302 459.511322,263.523987
	C459.031738,262.228668 459.033051,261.396210 459.024261,260.563873
	C458.933258,251.933014 459.988770,252.957855 451.196991,252.952499
	C402.750977,252.922974 354.304962,252.934006 305.575623,252.789368
	C293.213196,240.469238 281.134094,228.290878 269.519165,216.080688
	C330.584900,216.032578 391.186462,216.016327 451.787994,215.999710
	C453.119873,215.999344 454.648712,216.405212 455.732758,215.885483
	C457.026306,215.265305 458.410614,214.026016 458.891602,212.733398
	C459.436157,211.270065 458.855133,209.429337 459.059265,207.789520
	C459.521881,204.073914 458.076965,202.952881 454.319550,202.960129
	C388.557343,203.087128 322.794891,203.082199 257.032471,203.105942
	C234.643127,203.071899 212.253799,203.037857 189.402725,202.508667
	C188.952255,200.013885 188.973267,198.014267 188.973373,196.014648
	C188.975479,154.852417 188.990311,113.690186 188.965851,72.527969
	C188.958801,60.668449 195.355545,51.486168 209.652222,51.554070
	C305.806335,52.010777 401.963684,51.779190 498.119934,51.839149
	C501.907440,51.841511 505.694458,52.537117 509.481720,52.909706
	C510.647949,56.205494 512.759949,59.483208 512.823303,62.800068
	C513.173279,81.113312 513.023621,99.436096 512.812622,118.569092
	C512.418091,120.522797 512.113953,121.663101 512.114502,122.803261
	C512.138428,169.799866 512.189697,216.796463 512.237549,263.793060
M328.500000,104.064751
	C301.002411,104.064728 273.504578,103.998466 246.007370,104.098862
	C235.710876,104.136452 237.267044,102.149574 236.937805,113.517578
	C236.834442,117.086380 238.109329,118.014946 241.532455,118.011047
	C312.526184,117.930069 383.520081,117.929237 454.513824,118.012657
	C457.970367,118.016716 459.509735,117.039177 459.051300,113.492088
	C458.903015,112.344704 458.875214,111.137802 459.054901,109.999596
	C459.826202,105.114334 457.730469,103.938316 452.988800,103.959366
	C411.826508,104.142151 370.663086,104.064842 328.500000,104.064751
M456.193878,166.947632
	C462.179413,164.739288 457.753082,159.797638 458.748383,156.271149
	C458.828278,155.987946 455.602295,154.089508 453.910736,154.086761
	C383.291138,153.972290 312.671356,153.988419 242.051575,153.991379
	C241.052811,153.991425 240.037750,153.930939 239.061325,154.089630
	C238.460419,154.187286 237.435608,154.630569 237.424057,154.948563
	C237.291992,158.582016 237.003098,162.272385 237.577957,165.814178
	C237.688156,166.493103 241.362534,166.912994 243.393005,166.914566
	C314.012756,166.969208 384.632507,166.959259 456.193878,166.947632
z"/>
<path fill="#52C6E8" opacity="1.000000" stroke="none"
	d="
M512.680176,263.865723
	C512.189697,216.796463 512.138428,169.799866 512.114502,122.803261
	C512.113953,121.663101 512.418091,120.522797 512.835999,119.015137
	C519.390991,118.834732 526.287842,118.027397 530.301575,124.210457
	C532.614868,127.773994 534.871277,132.221252 534.903259,136.288437
	C535.235107,178.547516 535.109253,220.810196 535.100952,263.541199
	C527.768555,263.986481 520.445679,263.962433 512.680176,263.865723
z"/>
<path fill="#50C5EA" opacity="1.000000" stroke="none"
	d="
M509.478394,52.606659
	C505.694458,52.537117 501.907440,51.841511 498.119934,51.839149
	C401.963684,51.779190 305.806335,52.010777 209.652222,51.554070
	C195.355545,51.486168 188.958801,60.668449 188.965851,72.527969
	C188.990311,113.690186 188.975479,154.852417 188.973373,196.014648
	C188.973267,198.014267 188.952255,200.013885 188.929962,202.476120
	C187.551208,202.990494 186.183517,203.042252 184.408722,202.559906
	C184.000900,176.073349 184.017822,150.120880 183.963791,124.168556
	C183.959732,122.221169 183.448761,120.274834 183.173431,118.328018
	C183.163895,100.497963 183.119522,82.667831 183.156509,64.837868
	C183.183243,51.949295 190.039764,45.128334 202.976395,45.126320
	C299.792206,45.111252 396.608063,45.142490 493.423828,45.064049
	C500.033905,45.058697 505.514374,46.804028 509.478394,52.606659
z"/>
<path fill="#CFEFFC" opacity="1.000000" stroke="none"
	d="
M566.989502,138.917984
	C565.227600,118.812874 588.387756,103.975761 606.349854,114.629478
	C616.628113,120.725731 621.976624,133.137024 618.846375,145.014725
	C616.254333,154.850632 605.855164,164.964676 591.790588,164.130676
	C580.131897,163.439346 569.966003,155.780304 567.328674,144.329025
	C566.962036,142.737015 567.090820,141.030869 566.989502,138.917984
z"/>
<path fill="#CFEFFC" opacity="1.000000" stroke="none"
	d="
M125.268417,419.196777
	C109.659218,434.613464 85.905876,429.448883 79.760002,409.617889
	C76.106094,397.827759 81.222862,384.706573 92.409904,378.431122
	C101.965210,373.071014 114.974075,374.562195 123.595436,382.834473
	C133.136475,391.989166 134.317871,407.310364 125.268417,419.196777
z"/>
<path fill="#55C7E8" opacity="1.000000" stroke="none"
	d="
M182.735229,118.306259
	C183.448761,120.274834 183.959732,122.221169 183.963791,124.168556
	C184.017822,150.120880 184.000900,176.073349 184.001831,202.490097
	C176.649048,202.987961 169.296051,203.021530 161.475830,203.023636
	C160.997940,182.176483 160.980209,161.360764 160.979004,140.545059
	C160.978073,124.486191 166.353394,118.883446 182.735229,118.306259
z"/>
<path fill="#CFEFFC" opacity="1.000000" stroke="none"
	d="
M96.498032,72.285744
	C112.528748,62.613140 129.904831,75.686310 129.025146,91.605186
	C128.399368,102.929901 118.371315,111.058540 105.272354,111.100410
	C97.050430,111.126686 86.571022,101.396698 86.737694,91.175758
	C86.872032,82.937988 90.148331,77.252907 96.498032,72.285744
z"/>
<path fill="#CFEFFC" opacity="1.000000" stroke="none"
	d="
M550.348267,49.262173
	C560.288879,54.973354 563.832031,63.315174 560.613220,72.713585
	C558.035278,80.240669 550.602173,85.165436 542.070374,84.999039
	C534.550232,84.852379 527.258667,79.167969 525.117737,71.814537
	C522.942993,64.345047 525.164978,58.230278 530.570557,52.878693
	C536.268799,47.237354 542.875977,47.078613 550.348267,49.262173
z"/>
<path fill="#CFEFFC" opacity="1.000000" stroke="none"
	d="
M548.370728,380.979492
	C547.424377,378.696381 546.701721,376.493134 546.263489,374.234711
	C544.999268,367.719238 546.594421,362.083008 551.846191,357.320740
	C561.256714,352.383453 566.647522,353.036530 573.090210,359.574799
	C578.476257,365.040741 578.920166,374.316559 574.083191,380.325104
	C569.479553,386.043945 560.129639,387.825867 553.764893,384.162689
	C552.051941,383.176819 550.402832,382.080048 548.370728,380.979492
z"/>
<path fill="#D5D5D5" opacity="1.000000" stroke="none"
	d="
M451.000000,395.985840
	C375.036957,395.985809 299.573883,395.986267 224.110825,395.985199
	C216.303818,395.985077 214.779419,394.411713 213.937103,386.605865
	C213.228653,380.040649 212.183884,373.508331 211.158295,366.981842
	C210.268875,361.321808 212.891174,358.002655 218.600433,358.001801
	C304.891510,357.988983 391.182617,357.988281 477.473694,358.002838
	C483.343445,358.003845 485.421234,359.930115 484.913422,365.892487
	C484.212463,374.122284 483.242462,382.357880 481.772095,390.479553
	C481.167816,393.817261 478.459747,396.058563 474.488037,396.011322
	C466.826324,395.920197 459.162781,395.985443 451.000000,395.985840
z"/>
<path fill="#FDFEFF" opacity="1.000000" stroke="none"
	d="
M257.065308,203.440460
	C322.794891,203.082199 388.557343,203.087128 454.319550,202.960129
	C458.076965,202.952881 459.521881,204.073914 459.059265,207.789520
	C458.855133,209.429337 459.436157,211.270065 458.891602,212.733398
	C458.410614,214.026016 457.026306,215.265305 455.732758,215.885483
	C454.648712,216.405212 453.119873,215.999344 451.787994,215.999710
	C391.186462,216.016327 330.584900,216.032578 269.253815,215.952728
	C268.025391,215.554688 267.526489,215.252777 267.027618,214.950867
	C264.476288,212.029434 261.931885,209.101898 259.369232,206.190445
	C258.639435,205.361313 257.856628,204.578842 257.065308,203.440460
z"/>
<path fill="#FEFEFE" opacity="1.000000" stroke="none"
	d="
M305.858948,252.931137
	C354.304962,252.934006 402.750977,252.922974 451.196991,252.952499
	C459.988770,252.957855 458.933258,251.933014 459.024261,260.563873
	C459.033051,261.396210 459.031738,262.228668 459.046265,263.520966
	C412.952087,263.987640 366.846710,264.005493 320.741394,263.962494
	C318.792389,263.960693 316.843872,263.393616 314.319092,262.734924
	C311.115021,259.230377 308.487000,256.080750 305.858948,252.931137
z"/>
<path fill="#D9DADA" opacity="1.000000" stroke="none"
	d="
M305.575623,252.789368
	C308.487000,256.080750 311.115021,259.230377 313.909119,262.669830
	C312.018005,263.308899 309.967743,263.901367 307.902435,263.959503
	C302.742065,264.104736 297.525970,263.549103 292.419739,264.094452
	C277.886566,265.646484 271.572021,256.374115 270.034424,243.904434
	C268.864716,234.418137 267.680267,224.933640 266.765015,215.199615
	C267.526489,215.252777 268.025391,215.554688 268.789612,215.984558
	C281.134094,228.290878 293.213196,240.469238 305.575623,252.789368
z"/>
<path fill="#FCFEFF" opacity="1.000000" stroke="none"
	d="
M329.000000,104.064835
	C370.663086,104.064842 411.826508,104.142151 452.988800,103.959366
	C457.730469,103.938316 459.826202,105.114334 459.054901,109.999596
	C458.875214,111.137802 458.903015,112.344704 459.051300,113.492088
	C459.509735,117.039177 457.970367,118.016716 454.513824,118.012657
	C383.520081,117.929237 312.526184,117.930069 241.532455,118.011047
	C238.109329,118.014946 236.834442,117.086380 236.937805,113.517578
	C237.267044,102.149574 235.710876,104.136452 246.007370,104.098862
	C273.504578,103.998466 301.002411,104.064728 329.000000,104.064835
z"/>
<path fill="#FBFEFF" opacity="1.000000" stroke="none"
	d="
M455.723083,166.953064
	C384.632507,166.959259 314.012756,166.969208 243.393005,166.914566
	C241.362534,166.912994 237.688156,166.493103 237.577957,165.814178
	C237.003098,162.272385 237.291992,158.582016 237.424057,154.948563
	C237.435608,154.630569 238.460419,154.187286 239.061325,154.089630
	C240.037750,153.930939 241.052811,153.991425 242.051575,153.991379
	C312.671356,153.988419 383.291138,153.972290 453.910736,154.086761
	C455.602295,154.089508 458.828278,155.987946 458.748383,156.271149
	C457.753082,159.797638 462.179413,164.739288 455.723083,166.953064
z"/>
</svg>
